<svg xmlns="http://www.w3.org/2000/svg" version="1.1" xmlns:xlink="http://www.w3.org/1999/xlink" width="1000" height="1000"><g clip-path="url(#SvgjsClipPath1029)"><rect width="1000" height="1000" fill="#262624"></rect><g transform="matrix(25,0,0,25,200,200)"><svg xmlns="http://www.w3.org/2000/svg" version="1.1" xmlns:xlink="http://www.w3.org/1999/xlink" width="24" height="24"><svg xmlns="http://www.w3.org/2000/svg" width="24" height="24" viewBox="0 0 24 24"><g fill="none" stroke="#fff" stroke-linecap="round" stroke-linejoin="round" stroke-width="1"><path d="M22.5 17.935v-6.848l-9.065-9.053a1.84 1.84 0 0 0-2.187-.299C9.17 2.902 5.152 5.152 5.152 5.152l-3.417 6.097a1.84 1.84 0 0 0 .3 2.187l9.052 9.064h6.848v-4.565z"></path><path d="M5.687 17.1a1.83 1.83 0 0 1-.535-1.29V5.151H15.81c.485 0 .949.193 1.291.535m.834 12.249L5.152 5.152"></path></g></svg></svg></g></g><defs><clipPath id="SvgjsClipPath1029"><rect width="1000" height="1000" x="0" y="0" rx="350" ry="350"></rect></clipPath></defs></svg>